<svg width="140" height="140" viewBox="0 0 140 140" fill="none" xmlns="http://www.w3.org/2000/svg">
<g filter="url(#filter0_f_1709_157645)">
<circle cx="109.725" cy="42.6719" r="22.5" fill="url(#paint0_linear_1709_157645)"/>
</g>
<path d="M87.79 117.737C74.9135 123.022 62.7598 119.76 57.3257 117.01C56.7146 116.701 56.345 116.073 56.3191 115.388L55.8416 102.796C55.7828 101.245 57.4525 100.196 58.8969 100.763C68.6466 104.587 80.0967 103.124 86.8109 101.298C88.1842 100.925 89.5908 101.969 89.5289 103.391L88.979 116.017C88.9461 116.773 88.4897 117.45 87.79 117.737Z" stroke="#1A1A1B"/>
<path d="M79.0368 120.155L79.6391 102.686" stroke="#1A1A1B"/>
<path d="M61.5468 82.7291L61.5465 62.3067C61.5465 60.6286 62.9192 59.2747 64.5972 59.2979V59.2979C66.1989 59.32 67.5025 60.593 67.5626 62.1938L68.3333 82.729" stroke="#1A1A1B" stroke-linecap="round"/>
<path d="M68.0964 76.9043L68.1677 75.9885C68.2801 74.5433 69.4757 73.4222 70.9251 73.4028V73.4028C72.4342 73.3825 73.6884 74.5605 73.7628 76.0679L74.0884 82.6694" stroke="#1A1A1B" stroke-linecap="round"/>
<path d="M74.0783 82.7294L74.0784 77.4413C74.0784 75.9751 75.2566 74.7811 76.7226 74.7615V74.7615C78.1787 74.7419 79.384 75.8887 79.4369 77.344L79.6327 82.7294" stroke="#1A1A1B" stroke-linecap="round"/>
<path d="M79.5651 80.0288L79.5652 78.9217C79.5654 77.4487 80.6516 76.2012 82.1107 75.9982V75.9982C83.4258 75.8152 84.6701 76.5472 84.9755 77.8391C85.4181 79.7113 85.96 82.8835 86.147 87.655C86.4867 96.3207 85.8636 101.25 85.8636 101.25" stroke="#1A1A1B" stroke-linecap="round"/>
<path d="M85.4264 108.332C86.4527 109.004 86.7396 110.379 86.0691 111.403C85.3985 112.426 84.0233 112.713 82.9969 112.04C81.9706 111.368 81.6837 109.993 82.3542 108.969C83.0248 107.946 84.4 107.659 85.4264 108.332Z" stroke="#1A1A1B"/>
<path d="M59.4168 100.57C59.4168 100.57 59.8176 98.0822 58.3937 93.6607C56.2414 86.9774 52.7306 83.239 50.2385 81.4266C47.7464 79.6142 49.968 76.368 53.7493 77.8019C56.3774 78.7986 61.5085 82.673 61.5085 82.673" stroke="#1A1A1B" stroke-linecap="round"/>
<path d="M67.74 66.846H74.2129C79.7357 66.846 84.2129 62.3688 84.2129 56.846V45.4756C84.2129 39.9527 79.7357 35.4756 74.2129 35.4756H63.0645C57.5416 35.4756 53.0645 39.9527 53.0645 45.4756V58.259C53.0645 63.0015 56.9089 66.846 61.6514 66.846V66.846" stroke="#1A1A1B"/>
<rect x="19.5723" y="57.1045" width="26.0237" height="26.2162" rx="7.5" stroke="#1A1A1B"/>
<rect x="88.4766" y="55.9531" width="26.0237" height="26.2162" rx="7.5" stroke="#1A1A1B"/>
<path d="M27.5439 65.1719L37.6256 75.2535" stroke="#1A1A1B" stroke-linecap="round"/>
<path d="M27.5439 75.2539L37.6256 65.1723" stroke="#1A1A1B" stroke-linecap="round"/>
<path d="M36.7627 97.0713V105.429" stroke="#1A1A1B" stroke-linecap="round"/>
<path d="M32.584 101.25L40.9416 101.25" stroke="#1A1A1B" stroke-linecap="round"/>
<path d="M93.3711 27.1182V35.4758" stroke="#1A1A1B" stroke-linecap="round"/>
<path d="M89.1924 31.2969L97.55 31.2969" stroke="#1A1A1B" stroke-linecap="round"/>
<path d="M96.4473 64.0215L106.529 74.1031" stroke="#1A1A1B" stroke-linecap="round"/>
<path d="M96.4473 74.1035L106.529 64.0219" stroke="#1A1A1B" stroke-linecap="round"/>
<path d="M62.0664 50.1714L67.1894 54.7785C67.3954 54.9637 67.7128 54.9461 67.8971 54.7392L75.7061 45.9697" stroke="#1A1A1B" stroke-linecap="round"/>
<circle cx="115" cy="44.0074" r="2.09338" stroke="#1A1A1B"/>
<circle cx="35.1783" cy="38.069" r="2.09338" stroke="#1A1A1B"/>
<path d="M95.7312 98.3521C97.0659 97.3813 98.2407 96.2084 99.2134 94.876C100.182 96.2224 101.365 97.4019 102.715 98.3674C101.417 99.3853 100.247 100.556 99.2295 101.854C98.2296 100.533 97.0526 99.354 95.7312 98.3521Z" stroke="#1A1A1B"/>
<path d="M50.0427 25.9546C51.3774 24.9839 52.5522 23.811 53.5249 22.4785C54.4938 23.825 55.6765 25.0044 57.0266 25.9699C55.7286 26.9878 54.5583 28.1586 53.541 29.4569C52.5411 28.1351 51.3641 26.9566 50.0427 25.9546Z" stroke="#1A1A1B"/>
<defs>
<filter id="filter0_f_1709_157645" x="81.2246" y="14.1719" width="57" height="57" filterUnits="userSpaceOnUse" color-interpolation-filters="sRGB">
<feFlood flood-opacity="0" result="BackgroundImageFix"/>
<feBlend mode="normal" in="SourceGraphic" in2="BackgroundImageFix" result="shape"/>
<feGaussianBlur stdDeviation="3" result="effect1_foregroundBlur_1709_157645"/>
</filter>
<linearGradient id="paint0_linear_1709_157645" x1="109.725" y1="17.6736" x2="109.725" y2="69.6387" gradientUnits="userSpaceOnUse">
<stop stop-color="#DB2243"/>
<stop offset="1" stop-color="white" stop-opacity="0"/>
</linearGradient>
</defs>
</svg>
