<svg width="140" height="140" viewBox="0 0 140 140" fill="none" xmlns="http://www.w3.org/2000/svg">
<g filter="url(#filter0_f_1709_157652)">
<circle cx="95.6689" cy="46.5137" r="22.5" fill="url(#paint0_linear_1709_157652)"/>
</g>
<path d="M50.0604 86.6411L34.8898 75.3693C33.3834 74.25 31.2435 74.6456 30.2369 76.2296V76.2296C29.3323 77.6529 29.6749 79.5325 31.0234 80.5453L42.4993 89.1638" stroke="#1A1A1B"/>
<path d="M35.1062 83.6338L30.3644 80.482C29.0152 79.5852 27.195 79.9454 26.2892 81.2886V81.2886C25.4053 82.5991 25.7127 84.3735 26.9857 85.3105L37.0869 92.7449" stroke="#1A1A1B"/>
<path d="M37.0869 92.745L27.8518 86.4488C26.5275 85.5459 24.7214 85.8924 23.8252 87.2212V87.2212C22.9414 88.5317 23.2735 90.309 24.5709 91.2119L34.611 98.1992" stroke="#1A1A1B"/>
<path d="M31.5729 96.1072L28.5765 94.2775C27.4466 93.5876 25.9838 93.812 25.1126 94.8091C24.0609 96.0126 24.2691 97.8591 25.5622 98.7978L44.6141 110.98C50.1771 114.537 57.4728 113.703 62.0892 108.982V108.982C66.8612 104.102 67.3972 96.4836 63.3554 90.9833L56.4973 81.6502L53.1618 75.9957C52.278 74.4975 50.1598 74.3673 49.0992 75.7461V75.7461C48.1549 76.9736 47.8448 78.5746 48.2624 80.066L50.0994 86.6267C50.1641 86.858 50.1355 87.1031 50.0295 87.3186C48.5701 90.2855 47.1182 96.7884 51.9346 101.605" stroke="#1A1A1B"/>
<path d="M89.4162 86.6411L104.587 75.3693C106.093 74.25 108.233 74.6456 109.24 76.2296V76.2296C110.144 77.6529 109.802 79.5325 108.453 80.5453L96.9773 89.1638" stroke="#1A1A1B"/>
<path d="M104.37 83.6338L109.112 80.482C110.461 79.5852 112.282 79.9454 113.187 81.2886V81.2886C114.071 82.5991 113.764 84.3735 112.491 85.3105L102.39 92.7449" stroke="#1A1A1B"/>
<path d="M102.39 92.745L111.625 86.4488C112.949 85.5459 114.755 85.8924 115.651 87.2212V87.2212C116.535 88.5317 116.203 90.309 114.906 91.2119L104.866 98.1992" stroke="#1A1A1B"/>
<path d="M107.904 96.1072L110.9 94.2775C112.03 93.5876 113.493 93.812 114.364 94.8091C115.416 96.0126 115.208 97.8591 113.914 98.7978L94.8625 110.98C89.2994 114.537 82.0037 113.703 77.3873 108.982V108.982C72.6153 104.102 72.0794 96.4836 76.1212 90.9833L82.9793 81.6502L86.3147 75.9957C87.1985 74.4975 89.3168 74.3673 90.3774 75.7461V75.7461C91.3217 76.9736 91.6318 78.5746 91.2142 80.066L89.3772 86.6267C89.3125 86.858 89.341 87.1031 89.4471 87.3186C90.9065 90.2855 92.3583 96.7884 87.542 101.605" stroke="#1A1A1B"/>
<path d="M96.3435 66.4342C97.3771 63.4879 97.9392 60.3198 97.9392 57.0204C97.9392 41.3192 85.2108 28.5908 69.5096 28.5908C53.8084 28.5908 41.0801 41.3192 41.0801 57.0204C41.0801 60.3198 41.6421 63.4879 42.6757 66.4342" stroke="#1A1A1B"/>
<path d="M53.374 27.0566L47.9955 17.8362" stroke="#1A1A1B" stroke-linecap="round"/>
<path d="M86.415 27.0566L91.7936 17.8362" stroke="#1A1A1B" stroke-linecap="round"/>
<path d="M41.0801 39.3486L31.8597 33.9701" stroke="#1A1A1B" stroke-linecap="round"/>
<path d="M98.709 39.3486L107.929 33.9701" stroke="#1A1A1B" stroke-linecap="round"/>
<path d="M103.319 57.0205H114.076" stroke="#1A1A1B" stroke-linecap="round"/>
<path d="M70.2793 23.2148L70.2793 12.4577" stroke="#1A1A1B" stroke-linecap="round"/>
<path d="M36.4697 57.0205H25.7126" stroke="#1A1A1B" stroke-linecap="round"/>
<path d="M69.631 41.6738C62.8611 41.6738 57.373 47.3249 57.373 54.2958C57.373 57.4288 58.4816 60.2952 60.3169 62.5018C61.5384 63.9704 62.5232 65.7087 62.5232 67.6189V68.3201L76.7389 68.5247V67.6189C76.7389 65.7087 77.7236 63.9704 78.9451 62.5018C80.7804 60.2952 81.889 57.4288 81.889 54.2958C81.889 47.3249 76.4009 41.6738 69.631 41.6738Z" stroke="#1A1A1B" stroke-linejoin="round"/>
<path d="M75.3863 49.2445C75.2257 48.9736 74.9041 48.8431 74.6003 48.9252L74.5394 48.9416L72.8872 49.5476C72.7212 49.4288 72.5534 49.3175 72.3774 49.2161C72.204 49.1142 72.0253 49.0216 71.842 48.9385L71.5171 47.211C71.4547 46.8807 71.1668 46.6414 70.8305 46.6401L68.389 46.6303C68.3272 46.6294 68.266 46.6372 68.2066 46.6536C67.9477 46.7225 67.7504 46.9331 67.6989 47.1962L67.3563 48.9249C66.9802 49.0913 66.6228 49.2976 66.291 49.5405L64.6231 48.9639C64.3046 48.8541 63.953 48.9865 63.7858 49.2791L62.5663 51.3913C62.3996 51.6818 62.4614 52.0501 62.7144 52.2699L64.0485 53.4292C64.0074 53.8445 64.0137 54.2628 64.067 54.6763L62.7671 55.8122C62.5221 56.037 62.4685 56.403 62.6392 56.6884L63.844 58.7609C64.0028 59.035 64.3257 59.1687 64.6319 59.0869L64.6827 59.0733L66.2918 58.5369C66.4551 58.6731 66.63 58.7948 66.814 58.9015C66.9918 59.006 67.1757 59.0997 67.3646 59.182L67.6893 60.8408C67.7518 61.1675 68.0355 61.4055 68.3682 61.4102L70.7673 61.4387C71.0982 61.4419 71.3866 61.2135 71.4588 60.8904L71.8341 59.1894C72.2164 59.025 72.5783 58.8171 72.9129 58.57L74.572 59.1272C74.89 59.2381 75.242 59.1071 75.4102 58.8155L76.6288 56.6998C76.8025 56.4054 76.7385 56.0284 76.4771 55.8078L75.1438 54.6517C75.1915 54.2381 75.1917 53.8204 75.1442 53.4068L76.4896 52.2117C76.7363 51.9863 76.7895 51.6179 76.6169 51.3318L75.3863 49.2445Z" stroke="#1A1A1B" stroke-linejoin="round"/>
<circle cx="69.6087" cy="53.9611" r="2.82116" transform="rotate(14.7866 69.6087 53.9611)" stroke="#1A1A1B"/>
<rect x="60.875" y="68.5244" width="17.5114" height="2.33486" rx="1.16743" stroke="#1A1A1B" stroke-linejoin="round"/>
<rect x="60.875" y="70.8594" width="17.5114" height="2.33486" rx="1.16743" stroke="#1A1A1B" stroke-linejoin="round"/>
<path d="M69.6308 77.864C72.5952 77.864 75.117 75.9149 76.0517 73.1943H63.21C64.1446 75.9149 66.6665 77.864 69.6308 77.864Z" stroke="#1A1A1B" stroke-linejoin="round"/>
<defs>
<filter id="filter0_f_1709_157652" x="67.1689" y="18.0137" width="57" height="57" filterUnits="userSpaceOnUse" color-interpolation-filters="sRGB">
<feFlood flood-opacity="0" result="BackgroundImageFix"/>
<feBlend mode="normal" in="SourceGraphic" in2="BackgroundImageFix" result="shape"/>
<feGaussianBlur stdDeviation="3" result="effect1_foregroundBlur_1709_157652"/>
</filter>
<linearGradient id="paint0_linear_1709_157652" x1="95.669" y1="21.5153" x2="95.669" y2="73.4805" gradientUnits="userSpaceOnUse">
<stop stop-color="#DB2243"/>
<stop offset="1" stop-color="white" stop-opacity="0"/>
</linearGradient>
</defs>
</svg>
