<svg width="140" height="140" viewBox="0 0 140 140" fill="none" xmlns="http://www.w3.org/2000/svg">
<g clip-path="url(#clip0_1709_157659)">
<g filter="url(#filter0_f_1709_157659)">
<circle cx="27.8701" cy="38.0879" r="22.5" fill="url(#paint0_linear_1709_157659)"/>
</g>
<path d="M118.787 95.0115C116.157 80.3187 106.167 71.2385 100.583 67.9624C99.9923 67.6159 99.2659 67.6432 98.6752 67.9898L86.8355 74.9366C85.4973 75.7218 85.5132 77.6917 86.7749 78.5947C95.9958 85.1937 101.319 96.5584 103.511 103.671C103.93 105.031 105.566 105.652 106.731 104.834L117.976 96.9404C118.595 96.5058 118.92 95.756 118.787 95.0115Z" stroke="#1A1A1B"/>
<path d="M116.224 87.0567L100.887 97.6167" stroke="#1A1A1B"/>
<path d="M88.3177 80.2049L85.4232 81.2117C83.6858 81.816 81.8154 81.9294 80.0178 81.5394L73.1714 80.0542C71.0766 79.5997 68.8891 80.1301 67.235 81.4935L56.8013 90.0939C55.8179 90.9045 55.8333 92.4157 56.833 93.2061L57.4006 93.6548C59.016 94.932 61.2492 95.0881 63.0266 94.0481L71.4228 89.1353" stroke="#1A1A1B"/>
<path d="M103.77 88.845C104.978 89.3882 106.397 88.8497 106.939 87.6441C107.48 86.4385 106.941 85.0203 105.733 84.4771C104.524 83.9339 103.105 84.4724 102.564 85.678C102.022 86.8836 102.561 88.3018 103.77 88.845Z" stroke="#1A1A1B"/>
<path d="M19.7611 95.0105C22.3909 80.3177 32.381 71.2375 37.9649 67.9614C38.5555 67.6149 39.282 67.6422 39.8726 67.9888L51.7124 74.9357C53.0506 75.7208 53.0347 77.6908 51.7729 78.5937C42.5521 85.1927 37.2288 96.5574 35.0371 103.67C34.618 105.03 32.9823 105.651 31.8173 104.833L20.5717 96.9394C19.9526 96.5048 19.6279 95.755 19.7611 95.0105Z" stroke="#1A1A1B"/>
<path d="M22.3239 87.0567L37.6611 97.6167" stroke="#1A1A1B"/>
<path d="M68.7683 90.4632L83.3643 101.586C84.7554 102.647 85.0885 104.603 84.1266 106.063V106.063C83.146 107.552 81.166 108.004 79.6367 107.088L65.9921 98.9109" stroke="#1A1A1B"/>
<path d="M76.9443 105.488L79.1361 107.042C80.4015 107.94 80.7505 109.666 79.933 110.985V110.985C79.0968 112.333 77.3408 112.773 75.9674 111.979L62.4591 104.164" stroke="#1A1A1B"/>
<path d="M72.8715 110.193L75.0542 111.814C76.2932 112.733 76.6207 114.449 75.8075 115.761V115.761C74.9624 117.123 73.1875 117.568 71.7994 116.765L58.3175 108.966" stroke="#1A1A1B"/>
<path d="M59.8382 109.832L68.53 114.985C69.7456 115.706 70.2208 117.228 69.6312 118.513V118.513C69.0143 119.857 67.4494 120.474 66.0895 119.893C62.7232 118.454 56.327 115.634 49.8218 112.305C41.7524 108.176 34.8478 103.349 34.8478 103.349" stroke="#1A1A1B"/>
<path d="M50.0982 79.3347L56.6331 83.6585C58.2697 84.7413 60.1887 85.3187 62.151 85.3187L62.6126 85.3187" stroke="#1A1A1B"/>
<path d="M34.7782 88.845C33.5695 89.3882 32.151 88.8497 31.6093 87.6441C31.0675 86.4385 31.6066 85.0203 32.8153 84.4771C34.024 83.9339 35.4425 84.4724 35.9843 85.678C36.5261 86.8836 35.9869 88.3018 34.7782 88.845Z" stroke="#1A1A1B"/>
<path d="M89.4342 49.6782C89.4165 48.8442 88.8449 48.1242 88.0371 47.9179L87.8753 47.8761L83.2749 47.1214C83.0468 46.6311 82.8047 46.1559 82.5309 45.6926C82.2637 45.2317 81.9721 44.7853 81.6576 44.355L83.1588 39.9471C83.4452 39.1038 83.0929 38.1768 82.3189 37.7358L76.7003 34.5323C76.559 34.4497 76.4077 34.388 76.2493 34.3485C75.5622 34.17 74.8329 34.3987 74.3713 34.9385L71.3289 38.4795C70.2446 38.3731 69.1515 38.3836 68.0697 38.5113L64.9739 35.0085C64.3823 34.3402 63.3988 34.1876 62.632 34.6448L57.0673 37.928C56.3043 38.3808 55.9669 39.3106 56.2642 40.1472L57.831 44.5595C57.1951 45.4638 56.6646 46.4368 56.2489 47.46L51.7709 48.3864C50.9127 48.5859 50.3124 49.3602 50.3341 50.2408L50.4132 56.5907C50.4222 57.4299 50.9928 58.159 51.8056 58.3693L51.9405 58.4041L56.3508 59.263C56.55 59.79 56.7948 60.2987 57.0803 60.7844C57.3544 61.2571 57.6563 61.7129 57.9847 62.1488L56.5727 66.3978C56.2911 67.2329 56.6356 68.1513 57.3967 68.5957L62.8932 71.7871C63.6524 72.2257 64.6151 72.0745 65.2026 71.4233L68.2843 67.9889C69.3802 68.1076 70.486 68.0997 71.5795 67.9656L74.6804 71.4122C75.2695 72.0826 76.252 72.2389 77.0199 71.7854L82.587 68.4929C83.3713 68.0402 83.7147 67.0872 83.3993 66.2379L81.8302 61.8342C82.4789 60.9426 83.0237 59.9793 83.4528 58.9634L88.1133 57.9597C88.9759 57.7613 89.5785 56.9809 89.5532 56.096L89.4342 49.6782Z" stroke="#1A1A1B" stroke-linejoin="round"/>
<circle cx="69.8742" cy="53.0393" r="8.29794" transform="rotate(14.4593 69.8742 53.0393)" stroke="#1A1A1B"/>
<path d="M41.1992 51.9668L50.3709 56.5224" stroke="#1A1A1B" stroke-linecap="round"/>
<circle cx="29.3722" cy="25.8996" r="3.72378" stroke="#1A1A1B"/>
<circle cx="37.8195" cy="50.0353" r="3.72378" stroke="#1A1A1B"/>
<circle cx="22.8556" cy="63.0773" r="3.72378" stroke="#1A1A1B"/>
<path d="M30.458 29.7012L36.0093 46.536" stroke="#1A1A1B" stroke-linecap="round"/>
<path d="M32.8721 27.9512L43.0695 32.3861" stroke="#1A1A1B" stroke-linecap="round"/>
<path d="M44.9702 38.0879L40.1129 46.6561M35.4064 53.0521L26.0537 61.1377" stroke="#1A1A1B" stroke-linecap="round"/>
<circle cx="46.5089" cy="34.3468" r="3.72378" stroke="#1A1A1B"/>
<path d="M98.75 51.9658L89.5784 56.5215" stroke="#1A1A1B" stroke-linecap="round"/>
<circle r="3.72378" transform="matrix(-1 0 0 1 110.577 25.8996)" stroke="#1A1A1B"/>
<circle r="3.72378" transform="matrix(-1 0 0 1 102.13 50.0353)" stroke="#1A1A1B"/>
<circle r="3.72378" transform="matrix(-1 0 0 1 117.094 63.0773)" stroke="#1A1A1B"/>
<path d="M109.491 29.7012L103.94 46.536" stroke="#1A1A1B" stroke-linecap="round"/>
<path d="M107.077 27.9512L96.8797 32.3861" stroke="#1A1A1B" stroke-linecap="round"/>
<path d="M94.979 38.0879L99.8364 46.6561M104.543 53.0521L113.896 61.1377" stroke="#1A1A1B" stroke-linecap="round"/>
<circle r="3.72378" transform="matrix(-1 0 0 1 93.4403 34.3468)" stroke="#1A1A1B"/>
<path d="M76.0093 115.565C76.0093 115.565 80.2355 115.087 90.1286 110.375C95.457 107.837 103.112 102.642 103.112 102.642" stroke="#1A1A1B"/>
</g>
<defs>
<filter id="filter0_f_1709_157659" x="-0.629883" y="9.58789" width="57" height="57" filterUnits="userSpaceOnUse" color-interpolation-filters="sRGB">
<feFlood flood-opacity="0" result="BackgroundImageFix"/>
<feBlend mode="normal" in="SourceGraphic" in2="BackgroundImageFix" result="shape"/>
<feGaussianBlur stdDeviation="3" result="effect1_foregroundBlur_1709_157659"/>
</filter>
<linearGradient id="paint0_linear_1709_157659" x1="27.8701" y1="13.0896" x2="27.8701" y2="65.0547" gradientUnits="userSpaceOnUse">
<stop stop-color="#DB2243"/>
<stop offset="1" stop-color="white" stop-opacity="0"/>
</linearGradient>
<clipPath id="clip0_1709_157659">
<rect width="140" height="140" fill="white"/>
</clipPath>
</defs>
</svg>
