<svg width="140" height="140" viewBox="0 0 140 140" fill="none" xmlns="http://www.w3.org/2000/svg">
<g filter="url(#filter0_f_1709_157638)">
<circle cx="37.5" cy="48.5" r="22.5" fill="url(#paint0_linear_1709_157638)"/>
</g>
<path d="M70.4552 97.2582L70.4551 97.2581L70.445 97.2626C70.3059 97.3246 70.1442 97.3291 69.9959 97.2628L69.9959 97.2629C69.8353 97.1914 65.5395 95.2664 61.2516 91.4425C56.8856 87.5488 52.584 81.7387 52.584 73.9562V59.8246C52.584 59.5184 52.8324 59.2699 53.1388 59.2699H59.5225C60.5518 59.2699 62.0858 59.1442 63.8587 58.3764L63.8587 58.3764C65.6712 57.5914 67.72 56.1521 69.7773 53.5572L69.7774 53.5573L69.7839 53.5487C69.8102 53.514 69.8422 53.4812 69.8788 53.4525L69.8802 53.4514C70.1182 53.263 70.464 53.3041 70.6505 53.5416L70.6517 53.5431C72.7128 56.1476 74.7663 57.5917 76.5818 58.3765C78.3528 59.1429 79.8883 59.2699 80.9177 59.2699H87.3013C87.6078 59.2699 87.8562 59.5184 87.8562 59.8246L87.8564 73.9562C87.8564 81.7392 83.5548 87.5498 79.1888 91.4436C74.8594 95.3047 70.5225 97.2284 70.456 97.2579L70.4552 97.2582Z" stroke="#1A1A1B"/>
<path d="M64.0879 74.1665L69.2109 78.7736C69.4169 78.9589 69.7343 78.9413 69.9186 78.7343L77.7275 69.9648" stroke="#1A1A1B" stroke-linecap="round"/>
<path d="M83.3975 102.774C85.2279 97.7396 72.9908 94.9904 69.148 94.4878C66.4921 89.7113 58.7768 84.6421 51.0728 87.0188L48.176 84.9919C44.2089 88.4268 41.6021 98.8015 40.7946 103.559L42.7685 104.226C42.7685 104.226 46.4107 109.486 53.1347 113.057C71.4276 122.774 92.0602 115.134 104.494 106.38C105.922 105.375 106.363 103.485 105.624 101.903C104.833 100.207 102.916 99.3466 101.106 99.8217C96.9367 100.916 89.3995 102.663 83.3975 102.774Z" fill="white"/>
<path d="M24.7847 99.3361C24.3242 87.6309 30.0504 79.474 33.7279 76.1383C34.2554 75.6598 35.0109 75.5673 35.67 75.8372L47.7015 80.764C49.1033 81.338 49.4001 83.2304 48.3984 84.3667C43.1403 90.3317 41.0884 99.0701 40.5379 104.866C40.398 106.339 38.8234 107.308 37.4943 106.659L25.8829 100.99C25.243 100.678 24.8127 100.048 24.7847 99.3361Z" fill="white" stroke="#1A1A1B"/>
<path d="M24.5539 95.4587L40.7772 102.862" stroke="#1A1A1B"/>
<path d="M36.5832 95.0526C35.5435 95.7597 34.1293 95.4907 33.4241 94.4538C32.7188 93.4168 32.9884 92.0027 34.0281 91.2956C35.0678 90.5885 36.4821 90.8575 37.1873 91.8944C37.8925 92.9314 37.623 94.3455 36.5832 95.0526Z" stroke="#1A1A1B"/>
<path d="M68.773 94.7895L68.3361 95.0325C68.413 95.171 68.5511 95.2648 68.7082 95.2853L68.773 94.7895ZM67.5718 102.968C67.3035 102.903 67.0331 103.067 66.968 103.336C66.9029 103.604 67.0676 103.874 67.336 103.94L67.5718 102.968ZM100.731 100.123L100.858 100.607L100.731 100.123ZM104.119 106.682L103.831 106.273L103.831 106.273L104.119 106.682ZM52.7597 113.359L52.9943 112.917L52.7597 113.359ZM42.3935 104.528L42.8045 104.243C42.7433 104.155 42.6553 104.089 42.5535 104.054L42.3935 104.528ZM50.6978 87.3205L50.4112 87.7302C50.5376 87.8187 50.6978 87.8438 50.8452 87.7983L50.6978 87.3205ZM68.7082 95.2853C70.6015 95.5329 74.5753 96.3375 77.8329 97.6948C79.4671 98.3757 80.8713 99.1757 81.7507 100.077C82.6123 100.96 82.9248 101.881 82.5526 102.905L83.4924 103.247C84.0354 101.753 83.5046 100.443 82.4665 99.3787C81.4462 98.3329 79.8941 97.4702 78.2175 96.7717C74.8535 95.3701 70.7874 94.5487 68.8379 94.2938L68.7082 95.2853ZM82.5526 102.905C82.3058 103.584 81.6931 104.059 80.6887 104.343C79.6811 104.628 78.3606 104.693 76.864 104.604C73.8766 104.425 70.3469 103.641 67.5718 102.968L67.336 103.94C70.1096 104.613 73.7178 105.417 76.8043 105.602C78.3447 105.694 79.7951 105.635 80.9608 105.305C82.1298 104.975 83.0928 104.346 83.4924 103.247L82.5526 102.905ZM83.0317 103.576C89.0986 103.464 96.6862 101.702 100.858 100.607L100.604 99.6398C96.4372 100.734 88.9504 102.466 83.0132 102.576L83.0317 103.576ZM103.831 106.273C91.4568 114.986 71.0387 122.502 52.9943 112.917L52.5252 113.801C71.0665 123.649 91.9135 115.887 104.407 107.091L103.831 106.273ZM104.796 102.416C105.439 103.794 105.048 105.416 103.831 106.273L104.407 107.091C106.046 105.937 106.536 103.78 105.702 101.993L104.796 102.416ZM100.858 100.607C102.442 100.191 104.111 100.947 104.796 102.416L105.702 101.993C104.805 100.071 102.639 99.1056 100.604 99.6398L100.858 100.607ZM42.3935 104.528C41.9824 104.813 41.9825 104.813 41.9826 104.813C41.9826 104.813 41.9828 104.813 41.9829 104.813C41.9831 104.814 41.9834 104.814 41.9837 104.814C41.9843 104.815 41.9852 104.817 41.9863 104.818C41.9885 104.821 41.9916 104.826 41.9955 104.831C42.0035 104.843 42.015 104.859 42.03 104.88C42.0601 104.922 42.1043 104.982 42.1626 105.06C42.2792 105.216 42.4519 105.441 42.6798 105.721C43.1353 106.281 43.8118 107.063 44.7005 107.957C46.4768 109.743 49.1078 111.985 52.5252 113.801L52.9943 112.917C49.6876 111.161 47.1355 108.988 45.4097 107.252C44.5473 106.384 43.893 105.628 43.4555 105.09C43.2368 104.821 43.0725 104.607 42.9636 104.462C42.9091 104.389 42.8685 104.333 42.842 104.296C42.8287 104.278 42.8189 104.264 42.8127 104.255C42.8096 104.25 42.8073 104.247 42.806 104.245C42.8053 104.244 42.8048 104.244 42.8046 104.243C42.8044 104.243 42.8044 104.243 42.8044 104.243C42.8044 104.243 42.8044 104.243 42.8044 104.243C42.8044 104.243 42.8045 104.243 42.3935 104.528ZM50.8452 87.7983C54.5503 86.6553 58.2733 87.2974 61.4098 88.8223C64.5535 90.3506 67.0641 92.745 68.3361 95.0325L69.21 94.5466C67.8261 92.0576 65.1511 89.5292 61.8471 87.9229C58.536 86.3132 54.5493 85.6091 50.5504 86.8428L50.8452 87.7983ZM42.5535 104.054L40.5796 103.387L40.2596 104.335L42.2334 105.002L42.5535 104.054ZM47.5143 85.7033L50.4112 87.7302L50.9844 86.9109L48.0876 84.884L47.5143 85.7033Z" fill="#1A1A1B"/>
<path d="M57.4956 38.876C55.8209 43.9642 68.1366 46.336 71.9931 46.7201C74.7946 51.4127 82.6622 56.2423 90.2894 53.6298L93.2472 55.5667C97.1067 52.0114 99.3933 41.5615 100.054 36.781L98.0607 36.1753C98.0607 36.1753 94.2585 31.0303 87.4279 27.6671C68.8449 18.5176 48.4569 26.7877 36.2982 35.9202C34.9019 36.969 34.5193 38.8713 35.3062 40.4303C36.1493 42.1006 38.0918 42.9019 39.886 42.3714C44.0199 41.1492 51.4998 39.1713 57.4956 38.876Z" fill="white"/>
<path d="M116.186 40.511C117.006 52.1964 111.533 60.5256 107.96 63.9728C107.447 64.4673 106.695 64.583 106.028 64.3335L93.8508 59.7789C92.432 59.2482 92.0771 57.3659 93.0434 56.1993C98.1156 50.0754 99.8978 41.2781 100.27 35.4679C100.364 33.9918 101.908 32.9748 103.257 33.5825L115.037 38.8916C115.686 39.1842 116.136 39.8006 116.186 40.511Z" fill="white" stroke="#1A1A1B"/>
<path d="M116.536 44.3789L100.093 37.4781" stroke="#1A1A1B"/>
<path d="M104.526 45.1552C105.543 44.4165 106.965 44.6418 107.702 45.6566C108.439 46.6714 108.213 48.0932 107.195 48.8319C106.178 49.5706 104.756 49.3452 104.019 48.3305C103.283 47.3157 103.508 45.8939 104.526 45.1552Z" stroke="#1A1A1B"/>
<path d="M72.3583 46.4076L72.7876 46.1513C72.7064 46.0153 72.5655 45.9258 72.4079 45.9101L72.3583 46.4076ZM73.3075 38.1964C73.5777 38.2532 73.8429 38.0802 73.8997 37.81C73.9565 37.5397 73.7836 37.2746 73.5133 37.2178L73.3075 38.1964ZM40.2513 42.0589L40.1095 41.5794L40.2513 42.0589ZM36.6634 35.6077L36.9637 36.0075L36.9637 36.0075L36.6634 35.6077ZM87.7931 27.3546L87.5722 27.8032L87.7931 27.3546ZM98.426 35.8628L98.0239 36.1599C98.0877 36.2464 98.1778 36.3099 98.2806 36.3412L98.426 35.8628ZM90.6547 53.3173L90.9286 52.899C90.7995 52.8145 90.6386 52.7943 90.4926 52.8443L90.6547 53.3173ZM72.4079 45.9101C70.5078 45.7208 66.5112 45.0388 63.2134 43.7824C61.559 43.152 60.1309 42.3956 59.2242 41.5217C58.3359 40.6655 57.9952 39.7545 58.3358 38.7198L57.3859 38.4072C56.8891 39.9166 57.4599 41.2101 58.5303 42.2417C59.5822 43.2556 61.1601 44.0702 62.8574 44.7168C66.2629 46.0143 70.3523 46.7103 72.3087 46.9052L72.4079 45.9101ZM58.3358 38.7198C58.5616 38.0338 59.1593 37.5399 60.1545 37.2251C61.1529 36.9093 62.4708 36.8033 63.9694 36.8468C66.9609 36.9335 70.513 37.6086 73.3075 38.1964L73.5133 37.2178C70.7203 36.6303 67.0891 35.9368 63.9984 35.8472C62.4559 35.8025 61.008 35.9063 59.8529 36.2716C58.6947 36.638 57.7515 37.2964 57.3859 38.4072L58.3358 38.7198ZM57.8362 38.0641C51.7757 38.3626 44.2458 40.3565 40.1095 41.5794L40.393 42.5384C44.5244 41.3169 51.9544 39.355 57.8854 39.0629L57.8362 38.0641ZM36.9637 36.0075C49.0643 26.9187 69.2416 18.7779 87.5722 27.8032L88.014 26.9061C69.1786 17.6322 48.5801 26.0318 36.3632 35.2079L36.9637 36.0075ZM36.1178 39.8925C35.4328 38.5353 35.7737 36.9013 36.9637 36.0075L36.3632 35.2079C34.7605 36.4117 34.3364 38.5823 35.2251 40.3431L36.1178 39.8925ZM40.1095 41.5794C38.5387 42.0438 36.8482 41.3394 36.1178 39.8925L35.2251 40.3431C36.1809 42.2367 38.3754 43.1349 40.393 42.5384L40.1095 41.5794ZM98.426 35.8628C98.8281 35.5656 98.828 35.5655 98.8279 35.5653C98.8278 35.5652 98.8277 35.5651 98.8276 35.5649C98.8274 35.5646 98.8271 35.5643 98.8268 35.5638C98.8261 35.5629 98.8252 35.5617 98.824 35.5601C98.8217 35.5571 98.8185 35.5528 98.8144 35.5473C98.8061 35.5363 98.7941 35.5204 98.7784 35.5C98.7471 35.4591 98.701 35.3997 98.6403 35.3236C98.519 35.1713 98.3395 34.9519 98.1031 34.679C97.6305 34.1333 96.9304 33.3728 96.0146 32.5066C94.1842 30.7754 91.4855 28.6153 88.014 26.9061L87.5722 27.8032C90.9313 29.4571 93.549 31.551 95.3274 33.2331C96.2161 34.0736 96.8934 34.8096 97.3472 35.3336C97.574 35.5956 97.7449 35.8044 97.8582 35.9467C97.9148 36.0178 97.9571 36.0722 97.9848 36.1084C97.9986 36.1264 98.0088 36.1399 98.0153 36.1485C98.0186 36.1529 98.021 36.156 98.0224 36.1579C98.0231 36.1589 98.0236 36.1595 98.0238 36.1599C98.0239 36.16 98.024 36.1601 98.024 36.1601C98.024 36.1601 98.024 36.1601 98.024 36.1601C98.0239 36.16 98.0239 36.1599 98.426 35.8628ZM90.4926 52.8443C86.8244 54.1007 83.0834 53.5734 79.9015 52.1457C76.7124 50.7148 74.1293 48.3987 72.7876 46.1513L71.929 46.6639C73.3888 49.1092 76.1403 51.5541 79.4921 53.0581C82.8512 54.5652 86.8576 55.1464 90.8167 53.7904L90.4926 52.8443ZM98.2806 36.3412L100.274 36.9469L100.565 35.9901L98.5713 35.3844L98.2806 36.3412ZM93.8864 54.8359L90.9286 52.899L90.3807 53.7356L93.3385 55.6725L93.8864 54.8359Z" fill="#1A1A1B"/>
<circle cx="35.8317" cy="65.9996" r="2.09338" stroke="#1A1A1B"/>
<path d="M48.5984 49.8257C49.933 48.855 51.1078 47.6821 52.0805 46.3496C53.0494 47.696 54.2322 48.8755 55.5822 49.841C54.2843 50.8589 53.114 52.0297 52.0967 53.328C51.0968 52.0062 49.9198 50.8277 48.5984 49.8257Z" stroke="#1A1A1B"/>
<path d="M96.6081 85.9214C97.9428 84.9507 99.1176 83.7778 100.09 82.4453C101.059 83.7918 102.242 84.9712 103.592 85.9367C102.294 86.9546 101.124 88.1254 100.106 89.4237C99.1066 88.1019 97.9295 86.9234 96.6081 85.9214Z" stroke="#1A1A1B"/>
<defs>
<filter id="filter0_f_1709_157638" x="9" y="20" width="57" height="57" filterUnits="userSpaceOnUse" color-interpolation-filters="sRGB">
<feFlood flood-opacity="0" result="BackgroundImageFix"/>
<feBlend mode="normal" in="SourceGraphic" in2="BackgroundImageFix" result="shape"/>
<feGaussianBlur stdDeviation="3" result="effect1_foregroundBlur_1709_157638"/>
</filter>
<linearGradient id="paint0_linear_1709_157638" x1="37.5" y1="23.5017" x2="37.5" y2="75.4668" gradientUnits="userSpaceOnUse">
<stop stop-color="#DB2243"/>
<stop offset="1" stop-color="white" stop-opacity="0"/>
</linearGradient>
</defs>
</svg>
